<?xml version="1.0" encoding="UTF-8"?>
<!DOCTYPE svg PUBLIC "-//W3C//DTD SVG 1.1//EN" "http://www.w3.org/Graphics/SVG/1.1/DTD/svg11.dtd">
<!-- Creator: CorelDRAW X8 -->
<svg xmlns="http://www.w3.org/2000/svg" xml:space="preserve" width="95.2369mm" height="24mm" version="1.1" style="shape-rendering:geometricPrecision; text-rendering:geometricPrecision; image-rendering:optimizeQuality; fill-rule:evenodd; clip-rule:evenodd"
viewBox="0 0 2425281 611179"
 xmlns:xlink="http://www.w3.org/1999/xlink">
 <defs>
  <style type="text/css">
   <![CDATA[
    .fil3 {fill:#000066}
    .fil2 {fill:#1977F3}
    .fil1 {fill:#FFCC00}
    .fil0 {fill:#FFFF66}
    .fil4 {fill:#000066;fill-rule:nonzero}
    .fil5 {fill:#1977F3;fill-rule:nonzero}
   ]]>
  </style>
 </defs>
 <g id="Capa_x0020_1">
  <metadata id="CorelCorpID_0Corel-Layer"/>
  <g id="_1667753456896">
   <path class="fil0" d="M152237 235462c3270,1586 7828,4757 12089,8622 4260,3864 8222,8419 14265,14363 6046,5946 14170,13278 21799,20905 7627,7629 14763,15557 20309,21203 5549,5648 9512,9017 13584,12198 4072,3180 8253,6170 10250,7642 1999,1472 1815,1421 2495,3336 683,1915 2228,5794 2631,14370 402,8577 -341,21853 -835,36671 -492,14821 -734,31186 -856,40160 -122,8974 -122,10560 -1212,11253 -1088,693 -3270,494 -13772,-8916 -10502,-9414 -29324,-28040 -49042,-47557 -19716,-19519 -40323,-39930 -53896,-53603 -13576,-13672 -20113,-20607 -23879,-25163 -3764,-4558 -4755,-6738 -4953,-9412 -199,-2676 397,-5847 1782,-9017 1388,-3171 3568,-6341 9117,-12285 5549,-5946 14465,-14663 20508,-19517 6045,-4856 9213,-5847 11790,-6343 2575,-494 4559,-494 7826,1090z"/>
   <path class="fil1" d="M245220 322208c-48,-1148 217,-1240 2091,-2113 1877,-874 5365,-2527 18009,-14154 12644,-11628 34440,-33225 59605,-58192 25166,-24969 53700,-53305 76191,-75794 22489,-22491 38938,-39136 47853,-48051 8918,-8918 10304,-10108 12384,-11198 2081,-1090 4857,-2080 7826,-2378 2974,-295 6145,99 9415,1981 3269,1885 6636,5251 11095,9512 4459,4260 10006,9414 14289,13130 4286,3715 7303,5994 9285,8274 1983,2279 2928,4555 3300,7082 374,2526 173,5299 -2898,10351 -3071,5053 -9015,12387 -44980,49244 -35965,36856 -101947,103235 -140192,141875 -38244,38641 -48746,49538 -56129,57196 -7382,7655 -11643,12068 -14592,14523 -2946,2452 -4584,2949 -6674,3152 -2094,204 -4645,118 -5486,-155 -838,-272 36,-731 652,-4920 616,-4194 976,-12119 884,-28376 -87,-16258 -627,-40847 -1075,-54245 -445,-13395 -804,-15598 -853,-16744z"/>
   <path class="fil2" d="M250036 11770c596,11231 -1510,34883 -2320,47290 -813,12405 -331,13568 -899,14365 -568,798 -2185,1225 -5124,2695 -2936,1469 -7194,3977 -12847,7033 -5656,3056 -12710,6665 -21196,10643 -8482,3977 -18401,8329 -26295,11648 -7895,3315 -13770,5597 -20399,7950 -6628,2356 -14013,4782 -21933,7146 -7920,2363 -16377,4662 -25637,6799 -9259,2134 -19318,4105 -27228,5587 -7907,1482 -13665,2476 -17487,3163 -3820,690 -5702,1072 -6652,2142 -950,1067 -967,2819 -978,15740 -12,12919 -17,37007 247,55801 265,18791 803,32285 1656,43951 855,11669 2027,21506 4163,33365 2140,11860 5241,25741 9201,39500 3958,13757 8771,27389 14793,41423 6028,14032 13268,28466 20279,40804 7013,12335 13802,22578 21320,32726 7520,10148 15773,20204 24475,29754 8701,9550 17851,18598 24809,25130 6957,6534 11719,10555 16978,14727 5258,4171 11013,8492 17640,13135 6623,4642 14118,9603 19300,12870 5182,3267 8052,4844 10044,5430 1994,585 3107,180 3435,4823 331,4642 -125,14332 -433,25799 -305,11470 -466,24720 -680,31320 -214,6601 -483,6555 -761,6520 -275,-39 -555,-69 -2705,-815 -2149,-751 -6162,-2221 -13993,-6260 -7831,-4039 -19481,-10649 -31379,-18228 -11900,-7581 -24047,-16133 -36278,-25853 -12232,-9723 -24544,-20617 -35367,-31188 -10821,-10571 -20151,-20816 -30343,-33650 -10189,-12838 -21243,-28260 -29833,-41433 -8587,-13174 -14711,-24093 -20110,-34672 -5399,-10578 -10074,-20810 -14936,-33085 -4859,-12277 -9898,-26591 -13986,-40019 -4087,-13431 -7217,-25970 -9684,-38354 -2465,-12384 -4268,-24611 -5595,-39299 -1327,-14689 -2180,-31835 -2593,-45645 -415,-13808 -392,-24277 -410,-33098 -15,-8819 -73,-15990 -117,-28389 -43,-12402 -74,-30029 -122,-43104 -46,-13074 -112,-21595 25,-26685 141,-5088 482,-6749 1182,-7892 700,-1146 1762,-1772 4444,-2254 2681,-484 6980,-820 16318,-1696 9339,-878 23712,-2297 35892,-3878 12180,-1579 22168,-3323 31560,-5282 9394,-1958 18192,-4133 27138,-6700 8947,-2567 18038,-5526 27593,-9076 9552,-3552 19565,-7693 30576,-12840 11012,-5144 23024,-11294 32263,-16288 9239,-4996 15707,-8836 20245,-11706 4541,-2868 7154,-4765 9425,-6392 2272,-1630 4204,-2990 6817,-4263 2613,-1276 5906,-2465 6502,8765z"/>
   <path class="fil3" d="M247815 543633c2328,-1979 7622,-4823 16033,-10387 8414,-5567 19945,-13854 29161,-21012 9216,-7159 16117,-13191 23551,-20220 7433,-7026 15397,-15050 22186,-22486 6791,-7436 12409,-14284 18045,-21631 5635,-7344 11291,-15188 15911,-22028 4622,-6840 8205,-12674 11869,-19196 3665,-6522 7411,-13731 11608,-22827 4196,-9102 8849,-20090 12272,-28578 3425,-8488 5622,-14472 7110,-18745 1489,-4274 2266,-6835 3812,-9512 1548,-2676 3863,-5470 5765,-7566 1903,-2096 3387,-3494 9593,-9636 6206,-6140 17134,-17024 26319,-26171 9188,-9150 16637,-16563 21631,-21532 4991,-4968 7528,-7492 8814,-8485 1286,-993 1319,-453 1232,2404 -89,2858 -300,8032 -1143,15511 -843,7480 -2318,17261 -4592,28942 -2271,11684 -5345,25267 -8019,35724 -2676,10453 -4953,17777 -8500,27653 -3545,9878 -8361,22313 -12993,33090 -4632,10777 -9084,19899 -13813,28817 -4726,8913 -9733,17625 -15483,26737 -5750,9111 -12246,18625 -18014,26563 -5768,7940 -10806,14302 -16319,20770 -5516,6468 -11508,13041 -18004,19856 -6499,6814 -13502,13868 -19785,19807 -6279,5939 -11833,10762 -19593,16886 -7759,6122 -17722,13540 -24816,18657 -7098,5113 -11327,7922 -16446,11151 -5119,3227 -11124,6876 -17487,10487 -6359,3608 -13077,7181 -17646,9537 -4571,2355 -6993,3494 -8806,4194 -1813,698 -3017,957 -3753,632 -736,-326 -999,-1238 -971,-11310 31,-10074 357,-29308 443,-39482 90,-10174 -58,-11289 -455,-12404 -395,-1116 -1042,-2231 1283,-4210z"/>
   <path class="fil3" d="M245431 2908c477,-919 1623,-988 2886,-805 1260,184 2638,617 5330,2300 2691,1681 6697,4612 11182,7586 4484,2975 9448,5995 16382,9906 6934,3915 15842,8720 24959,13322 9117,4599 18447,8992 28147,13013 9703,4018 19777,7665 29235,10769 9458,3104 18300,5666 26260,7681 7963,2014 15043,3478 21009,4683 5967,1204 10821,2144 14167,2905 3349,759 5193,1340 5776,1969 583,629 -92,1309 -2221,3323 -2131,2015 -5712,5363 -9835,9364 -4120,4001 -8778,8656 -13471,13369 -4693,4714 -9420,9489 -13051,13202 -3632,3713 -6168,6364 -8116,8088 -1951,1721 -3313,2513 -5104,2799 -1787,285 -4003,63 -12045,-2269 -8039,-2336 -21908,-6777 -33363,-10783 -11452,-4008 -20492,-7581 -28745,-11057 -8254,-3476 -15718,-6855 -21657,-9664 -5936,-2814 -10344,-5058 -14502,-7311 -4159,-2254 -8070,-4515 -11687,-6543 -3616,-2027 -6934,-3819 -8750,-4660 -1815,-843 -2126,-731 -2274,-10683 -145,-9952 -124,-29963 -201,-40982 -74,-11016 -242,-13041 -423,-14935 -178,-1898 -366,-3667 112,-4587z"/>
   <path class="fil4" d="M859371 346177c61341,0 110796,-22349 143130,-62768l-59916 -54209c-20923,25203 -46600,38993 -78460,38993 -54683,0 -92726,-38041 -92726,-95105 0,-57061 38043,-95102 92726,-95102 31860,0 57537,13790 78460,38991l59916 -54209c-32334,-40419 -81789,-62768 -143130,-62768 -105566,0 -183074,71803 -183074,173088 0,101285 77508,173089 183074,173089z"/>
   <path id="1" class="fil4" d="M1205071 346177c106516,0 184976,-73230 184976,-173089 0,-99859 -78460,-173088 -184976,-173088 -106516,0 -184976,73229 -184976,173088 0,99859 78460,173089 184976,173089zm0 -77984c-50404,0 -89874,-37567 -89874,-95105 0,-57537 39470,-95102 89874,-95102 50404,0 89874,37565 89874,95102 0,57538 -39470,95105 -89874,95105z"/>
   <polygon id="2" class="fil4" points="1672503,6657 1580253,223493 1489906,6657 1388144,6657 1530322,339520 1623048,339520 1765705,6657 "/>
   <polygon id="3" class="fil4" points="1878404,266767 1878404,205898 2026289,205898 2026289,135524 1878404,135524 1878404,79412 2046261,79412 2046261,6657 1785202,6657 1785202,339520 2052442,339520 2052442,266767 "/>
   <path id="4" class="fil4" d="M2310647 339520l100812 0 -71804 -104614c41369,-19972 65144,-56111 65144,-105089 0,-76084 -57061,-123160 -147885,-123160l-152165 0 0 332863 94152 0 0 -88445 51357 0 60389 88445zm-950 -209703c0,30434 -19496,48502 -58490,48502l-52306 0 0 -97480 52306 0c38994,0 58490,18070 58490,48978z"/>
   <path class="fil5" d="M763612 588211l19224 0 -44667 -98942 -18089 0 -44527 98942 18942 0 9753 -22899 49470 0 9894 22899zm-53145 -37315l18514 -43254 18658 43254 -37172 0z"/>
   <path id="1" class="fil5" d="M826087 589624c27139,0 40001,-13568 40001,-29423 0,-36281 -58660,-22570 -58660,-43630 0,-7515 6221,-13451 21485,-13451 8623,0 18377,2544 27282,7774l5793 -14276c-8620,-5653 -21060,-8765 -32932,-8765 -27139,0 -39861,13571 -39861,29566 0,36704 58800,22733 58800,44078 0,7350 -6501,12863 -21908,12863 -12155,0 -24735,-4525 -32652,-10884l-6359 14276c8197,7067 23604,11872 39011,11872z"/>
   <polygon id="2" class="fil5" points="902698,572804 902698,545523 950474,545523 950474,530399 902698,530399 902698,504676 956553,504676 956553,489269 884322,489269 884322,588211 958532,588211 958532,572804 "/>
   <path id="3" class="fil5" d="M1009698 589624c27138,0 40001,-13568 40001,-29423 0,-36281 -58660,-22570 -58660,-43630 0,-7515 6221,-13451 21485,-13451 8623,0 18376,2544 27282,7774l5793 -14276c-8620,-5653 -21060,-8765 -32932,-8765 -27139,0 -39862,13571 -39862,29566 0,36704 58801,22733 58801,44078 0,7350 -6502,12863 -21908,12863 -12155,0 -24735,-4525 -32653,-10884l-6358 14276c8197,7067 23604,11872 39011,11872z"/>
   <path id="4" class="fil5" d="M1114153 589624c30671,0 53287,-21485 53287,-50885 0,-29401 -22616,-50886 -53287,-50886 -30671,0 -53287,21628 -53287,50886 0,29260 22616,50885 53287,50885zm0 -16114c-19929,0 -34771,-14559 -34771,-34771 0,-20213 14842,-34771 34771,-34771 19930,0 34771,14558 34771,34771 0,20212 -14841,34771 -34771,34771z"/>
   <path id="5" class="fil5" d="M1271470 588211l-22756 -32510c13428,-5230 21060,-16254 21060,-31238 0,-21909 -16112,-35194 -42120,-35194l-40710 0 0 98942 18377 0 0 -28835 22333 0c1271,0 2544,0 3817,-143l20213 28978 19786 0zm-20212 -63748c0,12440 -8340,19789 -24452,19789l-21485 0 0 -39436 21485 0c16112,0 24452,7209 24452,19647z"/>
   <path id="6" class="fil5" d="M1287585 481211l15264 0 24595 -19364 -20777 0 -19082 19364zm2684 107000l18376 0 0 -98942 -18376 0 0 98942z"/>
   <path id="7" class="fil5" d="M1409426 588211l19224 0 -44667 -98942 -18091 0 -44526 98942 18941 0 9753 -22899 49473 0 9893 22899zm-53147 -37315l18516 -43254 18659 43254 -37175 0z"/>
   <polygon id="8" class="fil5" points="1498615,572804 1498615,545523 1546389,545523 1546389,530399 1498615,530399 1498615,504676 1552467,504676 1552467,489269 1480239,489269 1480239,588211 1554446,588211 1554446,572804 "/>
   <polygon id="9" class="fil5" points="1644623,489269 1644623,556267 1590065,489269 1574938,489269 1574938,588211 1593174,588211 1593174,521213 1647735,588211 1662859,588211 1662859,489269 "/>
   <path id="10" class="fil5" d="M1759115 589624c27138,0 40001,-13568 40001,-29423 0,-36281 -58660,-22570 -58660,-43630 0,-7515 6221,-13451 21485,-13451 8623,0 18376,2544 27282,7774l5793 -14276c-8620,-5653 -21060,-8765 -32932,-8765 -27139,0 -39862,13571 -39862,29566 0,36704 58801,22733 58801,44078 0,7350 -6502,12863 -21908,12863 -12155,0 -24735,-4525 -32653,-10884l-6358 14276c8197,7067 23604,11872 39011,11872z"/>
   <polygon id="11" class="fil5" points="1835726,572804 1835726,545523 1883502,545523 1883502,530399 1835726,530399 1835726,504676 1889578,504676 1889578,489269 1817350,489269 1817350,588211 1891557,588211 1891557,572804 "/>
   <path id="12" class="fil5" d="M1979192 568422c-6361,3674 -13288,5088 -20355,5088 -20920,0 -35761,-14699 -35761,-34771 0,-20495 14841,-34771 35904,-34771 10601,0 19504,3534 27279,11306l11592 -11306c-9331,-10602 -23181,-16115 -39719,-16115 -30956,0 -53572,21345 -53572,50886 0,29542 22616,50885 53289,50885 13994,0 28410,-4240 38729,-12580l0 -39436 -17386 0 0 30814z"/>
   <path id="13" class="fil5" d="M2063293 589624c26999,0 43254,-15689 43254,-44524l0 -55831 -18094 0 0 55123c0,20355 -9045,29118 -25017,29118 -15973,0 -25161,-8763 -25161,-29118l0 -55123 -18376 0 0 55831c0,28835 16258,44524 43394,44524z"/>
   <path id="14" class="fil5" d="M2216796 588211l-22757 -32510c13428,-5230 21061,-16254 21061,-31238 0,-21909 -16113,-35194 -42121,-35194l-40709 0 0 98942 18376 0 0 -28835 22333 0c1271,0 2544,0 3817,-143l20213 28978 19787 0zm-20213 -63748c0,12440 -8340,19789 -24452,19789l-21485 0 0 -39436 21485 0c16112,0 24452,7209 24452,19647z"/>
   <path id="15" class="fil5" d="M2281815 589624c30671,0 53287,-21485 53287,-50885 0,-29401 -22616,-50886 -53287,-50886 -30671,0 -53287,21628 -53287,50886 0,29260 22616,50885 53287,50885zm0 -16114c-19930,0 -34771,-14559 -34771,-34771 0,-20213 14841,-34771 34771,-34771 19929,0 34771,14558 34771,34771 0,20212 -14842,34771 -34771,34771z"/>
   <path id="16" class="fil5" d="M2385280 589624c27139,0 40001,-13568 40001,-29423 0,-36281 -58660,-22570 -58660,-43630 0,-7515 6221,-13451 21485,-13451 8623,0 18376,2544 27282,7774l5793 -14276c-8620,-5653 -21060,-8765 -32932,-8765 -27139,0 -39862,13571 -39862,29566 0,36704 58801,22733 58801,44078 0,7350 -6502,12863 -21908,12863 -12155,0 -24735,-4525 -32653,-10884l-6358 14276c8197,7067 23604,11872 39011,11872z"/>
  </g>
  <g id="_1667753461760">
   <path class="fil0" d="M152237 235462c3270,1586 7828,4757 12089,8622 4260,3864 8222,8419 14265,14363 6046,5946 14170,13278 21799,20905 7627,7629 14763,15557 20309,21203 5549,5648 9512,9017 13584,12198 4072,3180 8253,6170 10250,7642 1999,1472 1815,1421 2495,3336 683,1915 2228,5794 2631,14370 402,8577 -341,21853 -835,36671 -492,14821 -734,31186 -856,40160 -122,8974 -122,10560 -1212,11253 -1088,693 -3270,494 -13772,-8916 -10502,-9414 -29324,-28040 -49042,-47557 -19716,-19519 -40323,-39930 -53896,-53603 -13576,-13672 -20113,-20607 -23879,-25163 -3764,-4558 -4755,-6738 -4953,-9412 -199,-2676 397,-5847 1782,-9017 1388,-3171 3568,-6341 9117,-12285 5549,-5946 14465,-14663 20508,-19517 6045,-4856 9213,-5847 11790,-6343 2575,-494 4559,-494 7826,1090z"/>
   <path class="fil1" d="M245220 322208c-48,-1148 217,-1240 2091,-2113 1877,-874 5365,-2527 18009,-14154 12644,-11628 34440,-33225 59605,-58192 25166,-24969 53700,-53305 76191,-75794 22489,-22491 38938,-39136 47853,-48051 8918,-8918 10304,-10108 12384,-11198 2081,-1090 4857,-2080 7826,-2378 2974,-295 6145,99 9415,1981 3269,1885 6636,5251 11095,9512 4459,4260 10006,9414 14289,13130 4286,3715 7303,5994 9285,8274 1983,2279 2928,4555 3300,7082 374,2526 173,5299 -2898,10351 -3071,5053 -9015,12387 -44980,49244 -35965,36856 -101947,103235 -140192,141875 -38244,38641 -48746,49538 -56129,57196 -7382,7655 -11643,12068 -14592,14523 -2946,2452 -4584,2949 -6674,3152 -2094,204 -4645,118 -5486,-155 -838,-272 36,-731 652,-4920 616,-4194 976,-12119 884,-28376 -87,-16258 -627,-40847 -1075,-54245 -445,-13395 -804,-15598 -853,-16744z"/>
   <path class="fil2" d="M250036 11770c596,11231 -1510,34883 -2320,47290 -813,12405 -331,13568 -899,14365 -568,798 -2185,1225 -5124,2695 -2936,1469 -7194,3977 -12847,7033 -5656,3056 -12710,6665 -21196,10643 -8482,3977 -18401,8329 -26295,11648 -7895,3315 -13770,5597 -20399,7950 -6628,2356 -14013,4782 -21933,7146 -7920,2363 -16377,4662 -25637,6799 -9259,2134 -19318,4105 -27228,5587 -7907,1482 -13665,2476 -17487,3163 -3820,690 -5702,1072 -6652,2142 -950,1067 -967,2819 -978,15740 -12,12919 -17,37007 247,55801 265,18791 803,32285 1656,43951 855,11669 2027,21506 4163,33365 2140,11860 5241,25741 9201,39500 3958,13757 8771,27389 14793,41423 6028,14032 13268,28466 20279,40804 7013,12335 13802,22578 21320,32726 7520,10148 15773,20204 24475,29754 8701,9550 17851,18598 24809,25130 6957,6534 11719,10555 16978,14727 5258,4171 11013,8492 17640,13135 6623,4642 14118,9603 19300,12870 5182,3267 8052,4844 10044,5430 1994,585 3107,180 3435,4823 331,4642 -125,14332 -433,25799 -305,11470 -466,24720 -680,31320 -214,6601 -483,6555 -761,6520 -275,-39 -555,-69 -2705,-815 -2149,-751 -6162,-2221 -13993,-6260 -7831,-4039 -19481,-10649 -31379,-18228 -11900,-7581 -24047,-16133 -36278,-25853 -12232,-9723 -24544,-20617 -35367,-31188 -10821,-10571 -20151,-20816 -30343,-33650 -10189,-12838 -21243,-28260 -29833,-41433 -8587,-13174 -14711,-24093 -20110,-34672 -5399,-10578 -10074,-20810 -14936,-33085 -4859,-12277 -9898,-26591 -13986,-40019 -4087,-13431 -7217,-25970 -9684,-38354 -2465,-12384 -4268,-24611 -5595,-39299 -1327,-14689 -2180,-31835 -2593,-45645 -415,-13808 -392,-24277 -410,-33098 -15,-8819 -73,-15990 -117,-28389 -43,-12402 -74,-30029 -122,-43104 -46,-13074 -112,-21595 25,-26685 141,-5088 482,-6749 1182,-7892 700,-1146 1762,-1772 4444,-2254 2681,-484 6980,-820 16318,-1696 9339,-878 23712,-2297 35892,-3878 12180,-1579 22168,-3323 31560,-5282 9394,-1958 18192,-4133 27138,-6700 8947,-2567 18038,-5526 27593,-9076 9552,-3552 19565,-7693 30576,-12840 11012,-5144 23024,-11294 32263,-16288 9239,-4996 15707,-8836 20245,-11706 4541,-2868 7154,-4765 9425,-6392 2272,-1630 4204,-2990 6817,-4263 2613,-1276 5906,-2465 6502,8765z"/>
   <path class="fil3" d="M247815 543633c2328,-1979 7622,-4823 16033,-10387 8414,-5567 19945,-13854 29161,-21012 9216,-7159 16117,-13191 23551,-20220 7433,-7026 15397,-15050 22186,-22486 6791,-7436 12409,-14284 18045,-21631 5635,-7344 11291,-15188 15911,-22028 4622,-6840 8205,-12674 11869,-19196 3665,-6522 7411,-13731 11608,-22827 4196,-9102 8849,-20090 12272,-28578 3425,-8488 5622,-14472 7110,-18745 1489,-4274 2266,-6835 3812,-9512 1548,-2676 3863,-5470 5765,-7566 1903,-2096 3387,-3494 9593,-9636 6206,-6140 17134,-17024 26319,-26171 9188,-9150 16637,-16563 21631,-21532 4991,-4968 7528,-7492 8814,-8485 1286,-993 1319,-453 1232,2404 -89,2858 -300,8032 -1143,15511 -843,7480 -2318,17261 -4592,28942 -2271,11684 -5345,25267 -8019,35724 -2676,10453 -4953,17777 -8500,27653 -3545,9878 -8361,22313 -12993,33090 -4632,10777 -9084,19899 -13813,28817 -4726,8913 -9733,17625 -15483,26737 -5750,9111 -12246,18625 -18014,26563 -5768,7940 -10806,14302 -16319,20770 -5516,6468 -11508,13041 -18004,19856 -6499,6814 -13502,13868 -19785,19807 -6279,5939 -11833,10762 -19593,16886 -7759,6122 -17722,13540 -24816,18657 -7098,5113 -11327,7922 -16446,11151 -5119,3227 -11124,6876 -17487,10487 -6359,3608 -13077,7181 -17646,9537 -4571,2355 -6993,3494 -8806,4194 -1813,698 -3017,957 -3753,632 -736,-326 -999,-1238 -971,-11310 31,-10074 357,-29308 443,-39482 90,-10174 -58,-11289 -455,-12404 -395,-1116 -1042,-2231 1283,-4210z"/>
   <path class="fil3" d="M245431 2908c477,-919 1623,-988 2886,-805 1260,184 2638,617 5330,2300 2691,1681 6697,4612 11182,7586 4484,2975 9448,5995 16382,9906 6934,3915 15842,8720 24959,13322 9117,4599 18447,8992 28147,13013 9703,4018 19777,7665 29235,10769 9458,3104 18300,5666 26260,7681 7963,2014 15043,3478 21009,4683 5967,1204 10821,2144 14167,2905 3349,759 5193,1340 5776,1969 583,629 -92,1309 -2221,3323 -2131,2015 -5712,5363 -9835,9364 -4120,4001 -8778,8656 -13471,13369 -4693,4714 -9420,9489 -13051,13202 -3632,3713 -6168,6364 -8116,8088 -1951,1721 -3313,2513 -5104,2799 -1787,285 -4003,63 -12045,-2269 -8039,-2336 -21908,-6777 -33363,-10783 -11452,-4008 -20492,-7581 -28745,-11057 -8254,-3476 -15718,-6855 -21657,-9664 -5936,-2814 -10344,-5058 -14502,-7311 -4159,-2254 -8070,-4515 -11687,-6543 -3616,-2027 -6934,-3819 -8750,-4660 -1815,-843 -2126,-731 -2274,-10683 -145,-9952 -124,-29963 -201,-40982 -74,-11016 -242,-13041 -423,-14935 -178,-1898 -366,-3667 112,-4587z"/>
   <path class="fil4" d="M859371 346177c61341,0 110796,-22349 143130,-62768l-59916 -54209c-20923,25203 -46600,38993 -78460,38993 -54683,0 -92726,-38041 -92726,-95105 0,-57061 38043,-95102 92726,-95102 31860,0 57537,13790 78460,38991l59916 -54209c-32334,-40419 -81789,-62768 -143130,-62768 -105566,0 -183074,71803 -183074,173088 0,101285 77508,173089 183074,173089z"/>
   <path id="1" class="fil4" d="M1205071 346177c106516,0 184976,-73230 184976,-173089 0,-99859 -78460,-173088 -184976,-173088 -106516,0 -184976,73229 -184976,173088 0,99859 78460,173089 184976,173089zm0 -77984c-50404,0 -89874,-37567 -89874,-95105 0,-57537 39470,-95102 89874,-95102 50404,0 89874,37565 89874,95102 0,57538 -39470,95105 -89874,95105z"/>
   <polygon id="2" class="fil4" points="1672503,6657 1580253,223493 1489906,6657 1388144,6657 1530322,339520 1623048,339520 1765705,6657 "/>
   <polygon id="3" class="fil4" points="1878404,266767 1878404,205898 2026289,205898 2026289,135524 1878404,135524 1878404,79412 2046261,79412 2046261,6657 1785202,6657 1785202,339520 2052442,339520 2052442,266767 "/>
   <path id="4" class="fil4" d="M2310647 339520l100812 0 -71804 -104614c41369,-19972 65144,-56111 65144,-105089 0,-76084 -57061,-123160 -147885,-123160l-152165 0 0 332863 94152 0 0 -88445 51357 0 60389 88445zm-950 -209703c0,30434 -19496,48502 -58490,48502l-52306 0 0 -97480 52306 0c38994,0 58490,18070 58490,48978z"/>
   <path class="fil5" d="M763612 588211l19224 0 -44667 -98942 -18089 0 -44527 98942 18942 0 9753 -22899 49470 0 9894 22899zm-53145 -37315l18514 -43254 18658 43254 -37172 0z"/>
   <path id="1" class="fil5" d="M826087 589624c27139,0 40001,-13568 40001,-29423 0,-36281 -58660,-22570 -58660,-43630 0,-7515 6221,-13451 21485,-13451 8623,0 18377,2544 27282,7774l5793 -14276c-8620,-5653 -21060,-8765 -32932,-8765 -27139,0 -39861,13571 -39861,29566 0,36704 58800,22733 58800,44078 0,7350 -6501,12863 -21908,12863 -12155,0 -24735,-4525 -32652,-10884l-6359 14276c8197,7067 23604,11872 39011,11872z"/>
   <polygon id="2" class="fil5" points="902698,572804 902698,545523 950474,545523 950474,530399 902698,530399 902698,504676 956553,504676 956553,489269 884322,489269 884322,588211 958532,588211 958532,572804 "/>
   <path id="3" class="fil5" d="M1009698 589624c27138,0 40001,-13568 40001,-29423 0,-36281 -58660,-22570 -58660,-43630 0,-7515 6221,-13451 21485,-13451 8623,0 18376,2544 27282,7774l5793 -14276c-8620,-5653 -21060,-8765 -32932,-8765 -27139,0 -39862,13571 -39862,29566 0,36704 58801,22733 58801,44078 0,7350 -6502,12863 -21908,12863 -12155,0 -24735,-4525 -32653,-10884l-6358 14276c8197,7067 23604,11872 39011,11872z"/>
   <path id="4" class="fil5" d="M1114153 589624c30671,0 53287,-21485 53287,-50885 0,-29401 -22616,-50886 -53287,-50886 -30671,0 -53287,21628 -53287,50886 0,29260 22616,50885 53287,50885zm0 -16114c-19929,0 -34771,-14559 -34771,-34771 0,-20213 14842,-34771 34771,-34771 19930,0 34771,14558 34771,34771 0,20212 -14841,34771 -34771,34771z"/>
   <path id="5" class="fil5" d="M1271470 588211l-22756 -32510c13428,-5230 21060,-16254 21060,-31238 0,-21909 -16112,-35194 -42120,-35194l-40710 0 0 98942 18377 0 0 -28835 22333 0c1271,0 2544,0 3817,-143l20213 28978 19786 0zm-20212 -63748c0,12440 -8340,19789 -24452,19789l-21485 0 0 -39436 21485 0c16112,0 24452,7209 24452,19647z"/>
   <path id="6" class="fil5" d="M1287585 481211l15264 0 24595 -19364 -20777 0 -19082 19364zm2684 107000l18376 0 0 -98942 -18376 0 0 98942z"/>
   <path id="7" class="fil5" d="M1409426 588211l19224 0 -44667 -98942 -18091 0 -44526 98942 18941 0 9753 -22899 49473 0 9893 22899zm-53147 -37315l18516 -43254 18659 43254 -37175 0z"/>
   <polygon id="8" class="fil5" points="1498615,572804 1498615,545523 1546389,545523 1546389,530399 1498615,530399 1498615,504676 1552467,504676 1552467,489269 1480239,489269 1480239,588211 1554446,588211 1554446,572804 "/>
   <polygon id="9" class="fil5" points="1644623,489269 1644623,556267 1590065,489269 1574938,489269 1574938,588211 1593174,588211 1593174,521213 1647735,588211 1662859,588211 1662859,489269 "/>
   <path id="10" class="fil5" d="M1759115 589624c27138,0 40001,-13568 40001,-29423 0,-36281 -58660,-22570 -58660,-43630 0,-7515 6221,-13451 21485,-13451 8623,0 18376,2544 27282,7774l5793 -14276c-8620,-5653 -21060,-8765 -32932,-8765 -27139,0 -39862,13571 -39862,29566 0,36704 58801,22733 58801,44078 0,7350 -6502,12863 -21908,12863 -12155,0 -24735,-4525 -32653,-10884l-6358 14276c8197,7067 23604,11872 39011,11872z"/>
   <polygon id="11" class="fil5" points="1835726,572804 1835726,545523 1883502,545523 1883502,530399 1835726,530399 1835726,504676 1889578,504676 1889578,489269 1817350,489269 1817350,588211 1891557,588211 1891557,572804 "/>
   <path id="12" class="fil5" d="M1979192 568422c-6361,3674 -13288,5088 -20355,5088 -20920,0 -35761,-14699 -35761,-34771 0,-20495 14841,-34771 35904,-34771 10601,0 19504,3534 27279,11306l11592 -11306c-9331,-10602 -23181,-16115 -39719,-16115 -30956,0 -53572,21345 -53572,50886 0,29542 22616,50885 53289,50885 13994,0 28410,-4240 38729,-12580l0 -39436 -17386 0 0 30814z"/>
   <path id="13" class="fil5" d="M2063293 589624c26999,0 43254,-15689 43254,-44524l0 -55831 -18094 0 0 55123c0,20355 -9045,29118 -25017,29118 -15973,0 -25161,-8763 -25161,-29118l0 -55123 -18376 0 0 55831c0,28835 16258,44524 43394,44524z"/>
   <path id="14" class="fil5" d="M2216796 588211l-22757 -32510c13428,-5230 21061,-16254 21061,-31238 0,-21909 -16113,-35194 -42121,-35194l-40709 0 0 98942 18376 0 0 -28835 22333 0c1271,0 2544,0 3817,-143l20213 28978 19787 0zm-20213 -63748c0,12440 -8340,19789 -24452,19789l-21485 0 0 -39436 21485 0c16112,0 24452,7209 24452,19647z"/>
   <path id="15" class="fil5" d="M2281815 589624c30671,0 53287,-21485 53287,-50885 0,-29401 -22616,-50886 -53287,-50886 -30671,0 -53287,21628 -53287,50886 0,29260 22616,50885 53287,50885zm0 -16114c-19930,0 -34771,-14559 -34771,-34771 0,-20213 14841,-34771 34771,-34771 19929,0 34771,14558 34771,34771 0,20212 -14842,34771 -34771,34771z"/>
   <path id="16" class="fil5" d="M2385280 589624c27139,0 40001,-13568 40001,-29423 0,-36281 -58660,-22570 -58660,-43630 0,-7515 6221,-13451 21485,-13451 8623,0 18376,2544 27282,7774l5793 -14276c-8620,-5653 -21060,-8765 -32932,-8765 -27139,0 -39862,13571 -39862,29566 0,36704 58801,22733 58801,44078 0,7350 -6502,12863 -21908,12863 -12155,0 -24735,-4525 -32653,-10884l-6358 14276c8197,7067 23604,11872 39011,11872z"/>
  </g>
 </g>
</svg>
